<?xml version="1.0" encoding="UTF-8"?>
<!--Generator: Apple Native CoreSVG 341-->
<!DOCTYPE svg
PUBLIC "-//W3C//DTD SVG 1.1//EN"
       "http://www.w3.org/Graphics/SVG/1.1/DTD/svg11.dtd">
<svg version="1.1" xmlns="http://www.w3.org/2000/svg" xmlns:xlink="http://www.w3.org/1999/xlink" viewBox="0 0 144.683 116.991">
 <g>
  <rect height="116.991" opacity="0" width="144.683" x="0" y="0"/>
  <path d="M19.374 116.294L126.803 116.294C138.208 116.294 144.683 109.77 144.683 97.1191L144.683 31.0283C144.683 18.3281 138.158 11.8535 125.309 11.8535L60.8115 11.8535C56.1299 11.8535 53.54 10.8574 50.2529 7.96875L46.4678 4.78125C42.2344 1.0957 39.1465 0 32.7715 0L16.9834 0C6.07617 0 0 6.02637 0 18.2285L0 97.1191C0 109.819 6.52441 116.294 19.374 116.294ZM10.9072 32.373L10.9072 29.4346C10.9072 25.4004 13.6963 22.7607 18.8262 22.7607L125.657 22.7607C130.787 22.7607 133.576 25.4004 133.576 29.4346L133.576 32.373Z" fill="white" fill-opacity="0.85"/>
 </g>
</svg>
