<?xml version="1.0" encoding="UTF-8"?>
<!--Generator: Apple Native CoreSVG 341-->
<!DOCTYPE svg
PUBLIC "-//W3C//DTD SVG 1.1//EN"
       "http://www.w3.org/Graphics/SVG/1.1/DTD/svg11.dtd">
<svg version="1.1" xmlns="http://www.w3.org/2000/svg" xmlns:xlink="http://www.w3.org/1999/xlink" viewBox="0 0 155.071 147.242">
 <g>
  <rect height="147.242" opacity="0" width="155.071" x="0" y="0"/>
  <path d="M131.599 73.7951C133.541 75.7375 135.882 75.8869 137.874 73.8947L153.712 58.1066C155.604 56.2141 155.505 53.7736 153.513 51.8312L149.578 47.9963C147.486 45.8547 146.191 45.5559 143.801 45.7551L138.322 46.3029L134.039 42.0695L135.732 34.9973C136.579 31.4113 135.384 27.925 131.798 24.3391L119.098 11.7883C105.899-1.16094 77.3613-0.463673 65.6074 12.2365C63.3662 14.7268 63.665 17.2668 65.1093 18.9602C66.1552 20.2551 68.1972 21.1018 69.9902 20.2551C79.5527 15.7727 89.5634 14.6271 97.9306 18.7609L92.4521 32.258C90.8086 36.4416 91.705 39.4299 94.4443 42.2687L106.248 54.0725C108.29 56.0646 110.332 56.6125 113.619 55.965L121.687 54.3215L125.971 58.6545L125.473 64.0334C125.273 66.5734 125.473 67.9182 127.664 70.01ZM3.40132 136.499L10.623 143.721C15.6533 148.801 21.9287 148.353 27.0586 142.575L101.118 58.8039C100.769 58.4553 100.471 58.1564 100.122 57.8078L89.9619 47.5979C89.6132 47.299 89.2148 46.8508 88.8662 46.552L4.79586 120.263C-1.0811 125.393-1.52934 131.519 3.40132 136.499Z" fill="white" fill-opacity="0.85"/>
 </g>
</svg>
