<?xml version="1.0" encoding="UTF-8"?>
<!--Generator: Apple Native CoreSVG 341-->
<!DOCTYPE svg
PUBLIC "-//W3C//DTD SVG 1.1//EN"
       "http://www.w3.org/Graphics/SVG/1.1/DTD/svg11.dtd">
<svg version="1.1" xmlns="http://www.w3.org/2000/svg" xmlns:xlink="http://www.w3.org/1999/xlink" viewBox="0 0 136.216 159.126">
 <g>
  <rect height="159.126" opacity="0" width="136.216" x="0" y="0"/>
  <path d="M27.8408 103.594C26.6455 103.594 25.7988 104.341 25.6494 105.586C23.0596 125.508 22.4121 125.707 2.19141 129.144C0.796875 129.343 0 130.09 0 131.335C0 132.58 0.796875 133.277 1.94238 133.477C22.3125 137.411 23.0596 137.212 25.6494 156.984C25.7988 158.329 26.6455 159.126 27.8408 159.126C28.9863 159.126 29.8828 158.329 30.0322 157.034C32.7217 136.963 33.2695 136.664 53.6895 133.477C54.835 133.327 55.6318 132.58 55.6318 131.335C55.6318 130.14 54.835 129.343 53.6895 129.144C33.2695 125.209 32.7715 125.408 30.0322 105.486C29.8828 104.341 28.9863 103.594 27.8408 103.594Z" fill="white" fill-opacity="0.85"/>
  <path d="M78.1436 21.0176C76.3506 21.0176 75.0557 22.2627 74.8564 24.0557C69.3779 65.8916 64.1982 70.4736 23.209 75.7529C21.3662 75.9521 20.0713 77.2969 20.0713 79.04C20.0713 80.833 21.3662 82.1777 23.209 82.377C64.3477 86.6104 69.8262 92.1885 74.8564 134.024C75.0557 135.817 76.3506 137.112 78.1436 137.112C79.8867 137.112 81.2314 135.817 81.4805 134.024C86.5605 92.1885 91.9893 86.6104 133.078 82.377C134.971 82.1777 136.216 80.833 136.216 79.04C136.216 77.2969 134.971 75.9521 133.078 75.7529C91.9893 71.4697 86.5605 65.8916 81.4805 24.0557C81.2314 22.2627 79.8867 21.0176 78.1436 21.0176Z" fill="white" fill-opacity="0.85"/>
 </g>
</svg>
